HIERARCHY
ROOT Hips
{
	OFFSET 0.000000 100.481300 0.000000
	CHANNELS 6 Xposition Yposition Zposition Xrotation Yrotation Zrotation
	JOINT Spine
	{
		OFFSET -0.279200 12.230698 -2.892100
		CHANNELS 3 Xrotation Yrotation Zrotation
		JOINT Spine1
		{
			OFFSET -0.325700 14.269203 -3.374200
			CHANNELS 3 Xrotation Yrotation Zrotation
			JOINT Spine2
			{
				OFFSET -0.372300 16.307602 -0.352600
				CHANNELS 3 Xrotation Yrotation Zrotation
				JOINT Neck
				{
					OFFSET -0.418800 17.814194 8.416900
					CHANNELS 3 Xrotation Yrotation Zrotation
					JOINT Head
					{
						OFFSET 0.000000 7.031097 3.806800
						CHANNELS 3 Xrotation Yrotation Zrotation
						JOINT HeadTop_End
						{
							OFFSET 0.000000 24.646606 12.978600
							CHANNELS 3 Xrotation Yrotation Zrotation
							End Site
							{
								OFFSET 0.000000 27.854965 0.000000
							}
						}
					}
				}
				JOINT LeftShoulder
				{
					OFFSET 16.952999 14.495407 -7.737500
					CHANNELS 3 Xrotation Yrotation Zrotation
					JOINT LeftArm
					{
						OFFSET 9.308998 -2.777710 0.208600
						CHANNELS 3 Xrotation Yrotation Zrotation
						JOINT LeftForeArm
						{
							OFFSET 29.972298 0.000000 0.000000
							CHANNELS 3 Xrotation Yrotation Zrotation
							JOINT LeftHand
							{
								OFFSET 26.026505 0.000000 0.000000
								CHANNELS 3 Xrotation Yrotation Zrotation
								JOINT LeftHandThumb1
								{
									OFFSET 12.240501 -7.147949 9.207150
									CHANNELS 3 Xrotation Yrotation Zrotation
									JOINT LeftHandThumb2
									{
										OFFSET 4.138618 -2.389435 2.389433
										CHANNELS 3 Xrotation Yrotation Zrotation
										JOINT LeftHandThumb3
										{
											OFFSET 2.726913 -1.574387 1.574386
											CHANNELS 3 Xrotation Yrotation Zrotation
											JOINT LeftHandThumb4
											{
												OFFSET 3.941010 -2.275345 2.275342
												CHANNELS 3 Xrotation Yrotation Zrotation
												End Site
												{
													OFFSET -0.005798 5.087799 0.009903
												}
											}
										}
									}
								}
								JOINT LeftHandIndex1
								{
									OFFSET 24.424698 -1.985611 5.953459
									CHANNELS 3 Xrotation Yrotation Zrotation
									JOINT LeftHandIndex2
									{
										OFFSET 6.426697 0.000000 0.000000
										CHANNELS 3 Xrotation Yrotation Zrotation
										JOINT LeftHandIndex3
										{
											OFFSET 5.337898 0.000000 0.000000
											CHANNELS 3 Xrotation Yrotation Zrotation
											JOINT LeftHandIndex4
											{
												OFFSET 4.409401 0.000000 0.000000
												CHANNELS 3 Xrotation Yrotation Zrotation
												End Site
												{
													OFFSET 0.000000 4.409363 0.014373
												}
											}
										}
									}
								}
								JOINT LeftHandMiddle1
								{
									OFFSET 23.810104 0.000000 0.000000
									CHANNELS 3 Xrotation Yrotation Zrotation
									JOINT LeftHandMiddle2
									{
										OFFSET 7.176498 0.000000 0.000000
										CHANNELS 3 Xrotation Yrotation Zrotation
										JOINT LeftHandMiddle3
										{
											OFFSET 6.774902 0.000000 0.000000
											CHANNELS 3 Xrotation Yrotation Zrotation
											JOINT LeftHandMiddle4
											{
												OFFSET 5.403328 0.000000 0.000000
												CHANNELS 3 Xrotation Yrotation Zrotation
												End Site
												{
													OFFSET -0.027702 5.403244 0.017414
												}
											}
										}
									}
								}
								JOINT LeftHandRing1
								{
									OFFSET 22.908401 -0.839279 -6.020567
									CHANNELS 3 Xrotation Yrotation Zrotation
									JOINT LeftHandRing2
									{
										OFFSET 6.337502 0.000000 0.000000
										CHANNELS 3 Xrotation Yrotation Zrotation
										JOINT LeftHandRing3
										{
											OFFSET 5.779297 0.000000 0.000000
											CHANNELS 3 Xrotation Yrotation Zrotation
											JOINT LeftHandRing4
											{
												OFFSET 4.965698 0.000000 0.000000
												CHANNELS 3 Xrotation Yrotation Zrotation
												End Site
												{
													OFFSET 0.000000 4.965668 0.016186
												}
											}
										}
									}
								}
								JOINT LeftHandPinky1
								{
									OFFSET 20.037003 -1.530319 -10.950146
									CHANNELS 3 Xrotation Yrotation Zrotation
									JOINT LeftHandPinky2
									{
										OFFSET 5.254700 0.000000 0.000000
										CHANNELS 3 Xrotation Yrotation Zrotation
										JOINT LeftHandPinky3
										{
											OFFSET 4.810204 0.000000 0.000000
											CHANNELS 3 Xrotation Yrotation Zrotation
											JOINT LeftHandPinky4
											{
												OFFSET 3.647202 0.000000 0.000000
												CHANNELS 3 Xrotation Yrotation Zrotation
												End Site
												{
													OFFSET 0.000000 3.647186 0.011889
												}
											}
										}
									}
								}
							}
						}
					}
				}
				JOINT RightShoulder
				{
					OFFSET -15.141001 14.495407 -7.737500
					CHANNELS 3 Xrotation Yrotation Zrotation
					JOINT RightArm
					{
						OFFSET -9.308998 -2.777710 0.208500
						CHANNELS 3 Xrotation Yrotation Zrotation
						JOINT RightForeArm
						{
							OFFSET -29.972300 0.000000 0.000000
							CHANNELS 3 Xrotation Yrotation Zrotation
							JOINT RightHand
							{
								OFFSET -26.026505 0.000000 0.000000
								CHANNELS 3 Xrotation Yrotation Zrotation
								JOINT RightHandThumb1
								{
									OFFSET -12.240601 -7.148026 9.207092
									CHANNELS 3 Xrotation Yrotation Zrotation
									JOINT RightHandThumb2
									{
										OFFSET -4.138618 -2.389435 2.389433
										CHANNELS 3 Xrotation Yrotation Zrotation
										JOINT RightHandThumb3
										{
											OFFSET -2.726974 -1.574417 1.574421
											CHANNELS 3 Xrotation Yrotation Zrotation
											JOINT RightHandThumb4
											{
												OFFSET -3.941010 -2.275345 2.275343
												CHANNELS 3 Xrotation Yrotation Zrotation
												End Site
												{
													OFFSET 0.005814 5.087799 0.009927
												}
											}
										}
									}
								}
								JOINT RightHandIndex1
								{
									OFFSET -24.424698 -1.985657 5.953444
									CHANNELS 3 Xrotation Yrotation Zrotation
									JOINT RightHandIndex2
									{
										OFFSET -6.426697 0.000000 0.000000
										CHANNELS 3 Xrotation Yrotation Zrotation
										JOINT RightHandIndex3
										{
											OFFSET -5.337898 0.000000 0.000000
											CHANNELS 3 Xrotation Yrotation Zrotation
											JOINT RightHandIndex4
											{
												OFFSET -4.409401 0.000000 0.000000
												CHANNELS 3 Xrotation Yrotation Zrotation
												End Site
												{
													OFFSET 0.000000 4.409363 0.014408
												}
											}
										}
									}
								}
								JOINT RightHandMiddle1
								{
									OFFSET -23.810097 0.000000 0.000000
									CHANNELS 3 Xrotation Yrotation Zrotation
									JOINT RightHandMiddle2
									{
										OFFSET -7.176498 0.000000 0.000000
										CHANNELS 3 Xrotation Yrotation Zrotation
										JOINT RightHandMiddle3
										{
											OFFSET -6.774902 0.000000 0.000000
											CHANNELS 3 Xrotation Yrotation Zrotation
											JOINT RightHandMiddle4
											{
												OFFSET -5.403328 0.000000 0.000000
												CHANNELS 3 Xrotation Yrotation Zrotation
												End Site
												{
													OFFSET 0.027702 5.403244 0.017457
												}
											}
										}
									}
								}
								JOINT RightHandRing1
								{
									OFFSET -22.908302 -0.839325 -6.020576
									CHANNELS 3 Xrotation Yrotation Zrotation
									JOINT RightHandRing2
									{
										OFFSET -6.337502 0.000000 0.000000
										CHANNELS 3 Xrotation Yrotation Zrotation
										JOINT RightHandRing3
										{
											OFFSET -5.779297 0.000000 0.000000
											CHANNELS 3 Xrotation Yrotation Zrotation
											JOINT RightHandRing4
											{
												OFFSET -4.965698 0.000000 0.000000
												CHANNELS 3 Xrotation Yrotation Zrotation
												End Site
												{
													OFFSET 0.000000 4.965668 0.016226
												}
											}
										}
									}
								}
								JOINT RightHandPinky1
								{
									OFFSET -20.037003 -1.530334 -10.950259
									CHANNELS 3 Xrotation Yrotation Zrotation
									JOINT RightHandPinky2
									{
										OFFSET -5.254700 0.000000 0.000000
										CHANNELS 3 Xrotation Yrotation Zrotation
										JOINT RightHandPinky3
										{
											OFFSET -4.810204 0.000000 0.000000
											CHANNELS 3 Xrotation Yrotation Zrotation
											JOINT RightHandPinky4
											{
												OFFSET -3.647202 0.000000 0.000000
												CHANNELS 3 Xrotation Yrotation Zrotation
												End Site
												{
													OFFSET 0.000000 3.647186 0.011917
												}
											}
										}
									}
								}
							}
						}
					}
				}
			}
		}
	}
	JOINT LeftUpLeg
	{
		OFFSET 15.427100 -6.655098 0.678600
		CHANNELS 3 Xrotation Yrotation Zrotation
		JOINT LeftLeg
		{
			OFFSET 4.081073 -39.591068 13.024000
			CHANNELS 3 Xrotation Yrotation Zrotation
			JOINT LeftFoot
			{
				OFFSET -4.081074 -37.707932 -15.979700
				CHANNELS 3 Xrotation Yrotation Zrotation
				JOINT LeftToeBase
				{
					OFFSET 5.346399 -15.068900 20.645000
					CHANNELS 3 Xrotation Yrotation Zrotation
					JOINT LeftToe_End
					{
						OFFSET 2.754700 0.931300 11.300900
						CHANNELS 3 Xrotation Yrotation Zrotation
						End Site
						{
							OFFSET 0.000000 11.669021 0.000000
						}
					}
				}
			}
		}
	}
	JOINT RightUpLeg
	{
		OFFSET -15.569500 -6.655098 0.678600
		CHANNELS 3 Xrotation Yrotation Zrotation
		JOINT RightLeg
		{
			OFFSET -4.081825 -39.591045 13.023800
			CHANNELS 3 Xrotation Yrotation Zrotation
			JOINT RightFoot
			{
				OFFSET 4.081824 -37.707954 -15.979600
				CHANNELS 3 Xrotation Yrotation Zrotation
				JOINT RightToeBase
				{
					OFFSET -5.346400 -15.068900 20.645000
					CHANNELS 3 Xrotation Yrotation Zrotation
					JOINT RightToe_End
					{
						OFFSET -2.754700 0.931300 11.300900
						CHANNELS 3 Xrotation Yrotation Zrotation
						End Site
						{
							OFFSET 0.000000 11.669021 0.000000
						}
					}
				}
			}
		}
	}
}
MOTION
Frames: 6
Frame Time: 0.033333
1.543465 96.318291 159.845596 3.130040 2.750182 -1.010627 -0.388928 0.028380 1.075038 -0.368622 0.033814 0.715240 -0.368895 0.035711 0.715355 -0.904321 -0.471291 -0.583654 -3.919432 -2.296569 -3.319977 0.000000 0.000000 0.000000 2.248872 -13.931056 -11.089803 15.185554 -34.167362 -56.970109 -0.000000 -9.224491 0.000020 -33.560992 -6.078105 10.780201 -1.225882 20.067910 15.307091 8.461756 13.947425 -3.382734 1.615969 4.645323 0.830003 0.000002 0.000002 -0.000001 0.493798 2.565019 -21.790392 0.445703 2.441386 -20.689041 0.112276 1.240851 -10.339795 0.000002 -0.000000 0.000001 0.493085 2.563237 -21.774378 0.446380 2.443184 -20.705068 0.112271 1.240847 -10.339813 0.000001 0.000001 -0.000000 0.493798 2.565019 -21.790388 0.445698 2.441386 -20.689039 0.112274 1.240850 -10.339801 0.000000 -0.000000 0.000000 1.990083 6.334992 -21.396138 0.449147 -1.616809 -21.167496 0.112278 1.240847 -10.339790 0.000001 0.000000 0.000001 0.830864 -0.228345 10.674139 25.107185 31.240151 52.329225 -0.000012 21.966896 0.000005 -21.432297 5.915734 -14.823858 18.351489 -29.748971 -9.261510 4.332911 -19.085738 2.345918 -1.545598 -5.105383 -0.938529 -0.000002 0.000003 0.000002 0.405231 -2.343248 19.619737 0.437379 -2.431516 20.391931 0.110159 -1.235256 10.191322 0.000002 -0.000001 -0.000002 0.405232 -2.343248 19.619735 0.437380 -2.431517 20.391936 0.110155 -1.235256 10.191324 -0.000000 -0.000001 0.000000 0.405230 -2.343247 19.619739 0.437379 -2.431521 20.391929 0.110156 -1.235257 10.191320 -0.000001 0.000000 -0.000000 0.405231 -2.343248 19.619735 0.437378 -2.431519 20.391934 0.110159 -1.235253 10.191320 0.000002 -0.000000 0.000001 -10.142914 2.936312 -2.104781 18.149150 4.391571 3.750894 -8.282108 -0.408330 -1.217753 -4.550161 0.000006 0.000000 -0.000000 -0.000001 -0.000000 -15.687481 -18.127845 0.589254 23.896385 6.803624 -6.267256 -5.873654 10.948841 -8.570582 -11.062733 -0.000001 0.000004 -0.000000 -0.000000 -0.000000 
1.616042 96.371666 160.247375 3.237038 2.736899 -1.123016 -0.328289 0.117907 1.093838 -0.308281 0.105745 0.718752 -0.308224 0.106935 0.718553 -0.899422 -0.521331 -0.478767 -3.791399 -2.432311 -3.259361 0.000000 0.000000 -0.000000 2.257785 -14.080142 -11.070300 15.398894 -34.468577 -56.738870 -0.000009 -9.218553 -0.000002 -33.994142 -5.696452 10.534238 -1.225878 20.067909 15.307089 8.461756 13.947423 -3.382739 1.615968 4.645325 0.830006 -0.000002 -0.000000 0.000001 0.493797 2.565021 -21.790390 0.445697 2.441386 -20.689043 0.112277 1.240851 -10.339795 -0.000002 -0.000000 0.000002 0.493086 2.563236 -21.774377 0.446378 2.443182 -20.705066 0.112272 1.240847 -10.339814 -0.000000 -0.000001 -0.000001 0.493797 2.565021 -21.790390 0.445697 2.441387 -20.689041 0.112276 1.240849 -10.339798 0.000000 0.000002 0.000001 1.990080 6.334994 -21.396138 0.449150 -1.616810 -21.167497 0.112277 1.240847 -10.339790 -0.000003 0.000000 -0.000000 0.836740 -0.193460 10.700388 25.068603 31.319508 52.398377 -0.000009 21.545810 0.000000 -20.577079 5.880289 -15.602561 18.351491 -29.748978 -9.261511 4.332907 -19.085739 2.345919 -1.545592 -5.105388 -0.938531 -0.000002 -0.000002 -0.000002 0.405229 -2.343248 19.619739 0.437379 -2.431514 20.391933 0.110158 -1.235256 10.191320 -0.000002 -0.000000 0.000001 0.405230 -2.343248 19.619737 0.437378 -2.431517 20.391934 0.110157 -1.235255 10.191324 0.000001 0.000001 0.000001 0.405229 -2.343245 19.619739 0.437381 -2.431519 20.391931 0.110160 -1.235253 10.191319 0.000002 -0.000000 -0.000001 0.405229 -2.343248 19.619737 0.437378 -2.431520 20.391929 0.110159 -1.235254 10.191320 0.000000 -0.000002 -0.000001 -9.747768 2.955254 -1.864575 17.954971 5.170051 3.510163 -8.605048 -0.304873 -1.316764 -4.454858 0.000004 -0.000000 -0.000000 -0.000000 0.000000 -15.422246 -18.232435 0.672189 23.758181 6.767968 -6.284073 -6.010217 10.911116 -8.572471 -11.205035 -0.000006 0.000002 -0.000001 0.000000 -0.000000 
1.828516 96.441254 160.667938 3.186491 2.774991 -1.152231 -0.246414 0.211106 1.059258 -0.236545 0.179339 0.699782 -0.236348 0.180361 0.699427 -0.855764 -0.549507 -0.371416 -3.824740 -2.434952 -3.234923 -0.000000 0.000000 -0.000000 2.262754 -14.207318 -11.051390 15.443065 -34.430806 -56.585450 0.000003 -9.360446 0.000008 -34.237846 -5.159799 11.204844 -1.225881 20.067912 15.307093 8.461756 13.947424 -3.382736 1.615967 4.645328 0.830009 0.000001 0.000000 0.000000 0.493795 2.565021 -21.790393 0.445698 2.441385 -20.689044 0.112276 1.240851 -10.339796 0.000000 0.000000 0.000002 0.493085 2.563236 -21.774378 0.446379 2.443184 -20.705068 0.112271 1.240846 -10.339814 -0.000003 0.000001 0.000002 0.493795 2.565021 -21.790392 0.445698 2.441387 -20.689043 0.112273 1.240849 -10.339799 0.000001 -0.000000 -0.000001 1.990080 6.334993 -21.396140 0.449149 -1.616809 -21.167496 0.112277 1.240847 -10.339791 0.000000 -0.000000 0.000001 0.848477 -0.114580 10.747385 24.999650 31.380314 52.498350 0.000004 21.233544 -0.000007 -19.609635 5.748575 -16.399031 18.351489 -29.748974 -9.261511 4.332907 -19.085738 2.345919 -1.545595 -5.105383 -0.938524 0.000001 0.000002 -0.000000 0.405230 -2.343248 19.619737 0.437375 -2.431517 20.391934 0.110160 -1.235255 10.191322 -0.000001 0.000001 0.000003 0.405231 -2.343247 19.619734 0.437376 -2.431518 20.391936 0.110156 -1.235256 10.191324 -0.000002 0.000000 0.000000 0.405229 -2.343246 19.619737 0.437376 -2.431520 20.391933 0.110161 -1.235255 10.191320 -0.000003 -0.000001 -0.000001 0.405230 -2.343248 19.619734 0.437378 -2.431521 20.391934 0.110158 -1.235254 10.191321 -0.000001 -0.000000 0.000001 -9.294729 2.871333 -2.069468 17.606081 4.099911 3.520929 -8.722433 -0.505337 -0.898352 -4.459873 0.000002 0.000001 -0.000000 0.000001 0.000000 -14.852824 -18.357556 0.602701 23.440606 6.813576 -6.276278 -6.347803 10.753360 -8.431411 -11.071753 0.000000 -0.000003 -0.000001 -0.000000 0.000000 
1.931231 96.489647 161.066467 3.068645 2.367984 -1.216311 -0.208260 0.284767 1.020833 -0.206770 0.236726 0.670943 -0.206535 0.237838 0.670529 -0.812567 -0.566150 -0.265496 -3.906789 -2.372470 -3.237149 0.000000 -0.000000 0.000000 2.268980 -14.325804 -11.036161 15.426728 -34.221307 -56.486740 0.000005 -9.573239 0.000009 -34.715908 -4.767245 12.519332 -1.225881 20.067910 15.307089 8.461756 13.947422 -3.382734 1.615968 4.645326 0.830002 0.000000 -0.000000 0.000000 0.493799 2.565019 -21.790393 0.445700 2.441386 -20.689044 0.112276 1.240851 -10.339800 -0.000001 0.000000 -0.000003 0.493085 2.563236 -21.774378 0.446377 2.443184 -20.705068 0.112270 1.240846 -10.339814 0.000001 -0.000001 0.000002 0.493799 2.565019 -21.790388 0.445698 2.441388 -20.689039 0.112276 1.240848 -10.339801 0.000001 -0.000000 -0.000001 1.990084 6.334992 -21.396138 0.449151 -1.616809 -21.167494 0.112277 1.240847 -10.339786 0.000001 0.000001 0.000003 0.863491 -0.012698 10.805856 24.968395 31.393711 52.549044 0.000002 21.125162 0.000019 -18.811202 5.606437 -16.926196 18.351492 -29.748971 -9.261507 4.332910 -19.085741 2.345920 -1.545596 -5.105385 -0.938528 -0.000000 0.000002 0.000002 0.405229 -2.343249 19.619737 0.437379 -2.431515 20.391933 0.110161 -1.235256 10.191321 0.000001 0.000000 -0.000000 0.405229 -2.343249 19.619735 0.437376 -2.431518 20.391934 0.110156 -1.235255 10.191324 -0.000003 0.000000 -0.000002 0.405228 -2.343248 19.619735 0.437379 -2.431520 20.391933 0.110159 -1.235255 10.191324 0.000002 0.000000 -0.000000 0.405229 -2.343249 19.619735 0.437378 -2.431520 20.391934 0.110161 -1.235255 10.191321 -0.000001 -0.000000 -0.000001 -8.649181 4.056496 -1.669400 17.358521 3.376905 2.891211 -8.960961 -0.641881 -0.359089 -4.561050 0.000004 -0.000000 -0.000000 -0.000000 -0.000000 -14.205669 -17.988196 0.983011 23.117679 6.783207 -6.597367 -6.709366 10.572031 -8.192265 -10.823784 -0.000000 -0.000002 -0.000000 -0.000000 -0.000001 
2.020345 96.524002 161.369080 2.901622 2.139190 -1.274844 -0.287552 0.302221 0.988698 -0.279173 0.247442 0.651665 -0.278967 0.248616 0.651262 -0.790432 -0.581162 -0.164841 -3.970642 -2.307810 -3.251252 0.000000 -0.000000 -0.000000 2.271548 -14.416965 -11.022057 15.420732 -34.034662 -56.471615 -0.000008 -9.768478 -0.000002 -35.501575 -4.606685 13.934065 -1.225880 20.067912 15.307086 8.461754 13.947423 -3.382732 1.615970 4.645325 0.830007 0.000002 0.000002 -0.000002 0.493799 2.565021 -21.790390 0.445699 2.441386 -20.689044 0.112277 1.240851 -10.339798 0.000000 -0.000000 -0.000002 0.493086 2.563236 -21.774378 0.446381 2.443184 -20.705066 0.112271 1.240848 -10.339816 0.000001 -0.000000 -0.000001 0.493799 2.565021 -21.790388 0.445696 2.441387 -20.689043 0.112276 1.240850 -10.339799 0.000001 -0.000000 -0.000001 1.990083 6.334994 -21.396140 0.449148 -1.616810 -21.167496 0.112275 1.240846 -10.339791 -0.000000 0.000000 -0.000001 0.878174 0.087797 10.861177 25.035099 31.319628 52.484502 -0.000007 21.252984 0.000005 -18.496844 5.595703 -17.165264 18.351487 -29.748974 -9.261505 4.332912 -19.085738 2.345918 -1.545597 -5.105384 -0.938531 -0.000002 0.000000 -0.000004 0.405230 -2.343248 19.619741 0.437379 -2.431517 20.391934 0.110159 -1.235255 10.191323 0.000002 0.000000 -0.000002 0.405230 -2.343248 19.619739 0.437378 -2.431518 20.391934 0.110156 -1.235258 10.191325 -0.000002 -0.000001 -0.000001 0.405229 -2.343247 19.619739 0.437378 -2.431520 20.391929 0.110162 -1.235255 10.191321 0.000001 -0.000001 -0.000003 0.405230 -2.343248 19.619739 0.437380 -2.431521 20.391934 0.110161 -1.235254 10.191322 0.000001 -0.000000 -0.000002 -8.001044 5.276692 -1.196448 17.111977 2.949464 2.116396 -9.164972 -0.717283 0.160838 -4.557747 -0.000002 0.000001 0.000000 -0.000000 0.000000 -13.511331 -17.819414 1.295338 22.736848 6.790339 -6.908639 -7.091634 10.342949 -7.831688 -10.445200 -0.000001 0.000001 -0.000000 0.000000 -0.000001 
2.250316 96.489250 161.571167 3.738012 2.386511 -1.249577 -0.489662 0.238303 0.911851 -0.453600 0.196507 0.648341 -0.453484 0.197475 0.648032 -0.775332 -0.601650 -0.063066 -3.999559 -2.270201 -3.269289 -0.000000 -0.000000 0.000000 2.250337 -14.411699 -10.999130 15.436251 -33.989111 -56.581892 -0.000002 -9.884953 -0.000007 -36.229068 -4.589785 15.002480 -1.225881 20.067914 15.307087 8.461754 13.947420 -3.382740 1.615969 4.645325 0.830007 -0.000001 -0.000001 0.000000 0.493795 2.565021 -21.790395 0.445697 2.441387 -20.689044 0.112277 1.240852 -10.339796 -0.000000 -0.000000 -0.000001 0.493084 2.563237 -21.774378 0.446381 2.443184 -20.705066 0.112271 1.240846 -10.339813 -0.000002 0.000001 0.000003 0.493795 2.565021 -21.790388 0.445695 2.441388 -20.689039 0.112272 1.240849 -10.339802 0.000002 -0.000000 0.000001 1.990082 6.334994 -21.396136 0.449151 -1.616810 -21.167497 0.112275 1.240847 -10.339792 -0.000000 0.000000 -0.000001 0.889808 0.169101 10.902958 25.191826 31.153306 52.324935 -0.000006 21.511715 -0.000006 -18.760776 5.751518 -17.309540 18.351485 -29.748978 -9.261517 4.332918 -19.085739 2.345917 -1.545595 -5.105385 -0.938533 -0.000006 -0.000000 0.000002 0.405227 -2.343249 19.619737 0.437379 -2.431517 20.391933 0.110160 -1.235256 10.191323 -0.000000 0.000000 0.000001 0.405228 -2.343249 19.619737 0.437382 -2.431517 20.391934 0.110155 -1.235256 10.191324 -0.000002 0.000000 0.000003 0.405226 -2.343248 19.619737 0.437381 -2.431520 20.391929 0.110158 -1.235257 10.191320 0.000003 0.000000 -0.000001 0.405227 -2.343249 19.619737 0.437382 -2.431520 20.391931 0.110157 -1.235254 10.191321 0.000000 0.000000 0.000000 -8.618112 4.750172 -1.285607 16.983822 3.639653 1.744874 -9.322997 -0.600839 0.320014 -4.202086 0.000004 0.000001 0.000000 0.000000 -0.000000 -14.095025 -17.951703 0.973535 22.542780 6.995056 -6.692681 -7.503916 9.902879 -7.709658 -9.991430 -0.000001 -0.000004 -0.000000 -0.000000 0.000001 
